<svg id="svg" version="1.1" xmlns="http://www.w3.org/2000/svg" xmlns:xlink="http://www.w3.org/1999/xlink" width="400" height="400.80160320641284" viewBox="0, 0, 400,400.80160320641284"><g id="svgg"><path id="path0" d="M0.000 200.400 L 0.000 400.800 200.000 400.800 L 400.000 400.800 400.000 200.400 L 400.000 0.000 200.000 0.000 L 0.000 0.000 0.000 200.400 M396.400 200.400 L 396.400 396.400 200.400 396.400 L 4.400 396.400 4.400 200.400 L 4.400 4.400 200.400 4.400 L 396.400 4.400 396.400 200.400 M107.100 97.757 C 106.223 98.423,106.026 111.466,106.880 112.320 C 107.475 112.915,115.437 112.987,115.800 112.400 C 115.949 112.159,118.737 112.000,122.824 112.000 L 129.600 112.000 129.600 116.976 C 129.600 119.863,129.432 122.057,129.200 122.200 C 128.935 122.364,128.800 151.271,128.800 207.624 C 128.800 264.141,128.665 292.800,128.400 292.800 C 128.178 292.800,128.000 293.867,128.000 295.200 C 128.000 296.533,127.822 297.600,127.600 297.600 C 127.380 297.600,127.200 298.195,127.200 298.921 C 127.200 300.317,125.563 304.001,124.581 304.816 C 124.261 305.081,124.000 305.515,124.000 305.779 C 124.000 306.901,119.268 310.000,117.556 310.000 C 117.166 310.000,116.736 310.180,116.600 310.400 C 116.464 310.620,115.744 310.800,115.000 310.800 C 114.256 310.800,113.536 310.980,113.400 311.200 C 113.264 311.420,111.849 311.600,110.256 311.600 C 108.537 311.600,107.165 311.795,106.880 312.080 C 106.218 312.742,106.218 321.658,106.880 322.320 C 107.506 322.946,207.200 323.025,207.200 322.400 C 207.200 322.163,208.667 322.000,210.800 322.000 C 212.933 322.000,214.400 321.837,214.400 321.600 C 214.400 321.371,215.600 321.200,217.200 321.200 C 218.800 321.200,220.000 321.029,220.000 320.800 C 220.000 320.580,220.720 320.400,221.600 320.400 C 222.480 320.400,223.200 320.220,223.200 320.000 C 223.200 319.780,224.100 319.600,225.200 319.600 C 226.300 319.600,227.200 319.420,227.200 319.200 C 227.200 318.980,228.100 318.800,229.200 318.800 C 230.300 318.800,231.200 318.620,231.200 318.400 C 231.200 318.180,231.740 318.000,232.400 318.000 C 233.060 318.000,233.600 317.820,233.600 317.600 C 233.600 317.380,234.140 317.200,234.800 317.200 C 235.460 317.200,236.000 317.020,236.000 316.800 C 236.000 316.580,236.540 316.400,237.200 316.400 C 237.860 316.400,238.400 316.220,238.400 316.000 C 238.400 315.780,238.940 315.600,239.600 315.600 C 240.260 315.600,240.800 315.420,240.800 315.200 C 240.800 314.980,241.340 314.800,242.000 314.800 C 242.660 314.800,243.200 314.620,243.200 314.400 C 243.200 314.180,243.560 314.000,244.000 314.000 C 244.440 314.000,244.800 313.820,244.800 313.600 C 244.800 313.380,245.340 313.200,246.000 313.200 C 246.660 313.200,247.200 313.020,247.200 312.800 C 247.200 312.580,247.560 312.400,248.000 312.400 C 248.440 312.400,248.800 312.220,248.800 312.000 C 248.800 311.780,249.160 311.600,249.600 311.600 C 250.040 311.600,250.400 311.420,250.400 311.200 C 250.400 310.980,250.760 310.800,251.200 310.800 C 251.640 310.800,252.000 310.620,252.000 310.400 C 252.000 310.180,252.500 310.000,253.112 310.000 C 253.765 310.000,254.461 309.670,254.800 309.200 C 255.117 308.760,255.697 308.400,256.088 308.400 C 256.480 308.400,256.800 308.220,256.800 308.000 C 256.800 307.780,257.160 307.600,257.600 307.600 C 258.040 307.600,258.400 307.420,258.400 307.200 C 258.400 306.980,258.720 306.800,259.112 306.800 C 259.503 306.800,260.083 306.440,260.400 306.000 C 260.717 305.560,261.297 305.200,261.688 305.200 C 262.080 305.200,262.400 305.020,262.400 304.800 C 262.400 304.580,262.760 304.400,263.200 304.400 C 263.640 304.400,264.000 304.220,264.000 304.000 C 264.000 303.780,264.288 303.600,264.640 303.600 C 264.991 303.600,265.783 303.060,266.400 302.400 C 267.017 301.740,267.738 301.200,268.003 301.200 C 268.268 301.200,268.839 300.750,269.271 300.200 C 269.704 299.650,270.281 299.200,270.554 299.200 C 270.827 299.200,271.568 298.660,272.200 298.000 C 272.832 297.340,273.545 296.800,273.784 296.800 C 274.022 296.800,275.744 295.255,277.609 293.366 C 279.474 291.478,281.408 289.771,281.907 289.573 C 282.406 289.376,282.976 288.806,283.173 288.307 C 283.371 287.808,285.078 285.874,286.966 284.009 C 288.855 282.144,290.400 280.417,290.400 280.171 C 290.400 279.925,290.760 279.398,291.200 279.000 C 291.640 278.602,292.000 278.068,292.000 277.813 C 292.000 277.558,292.540 276.832,293.200 276.200 C 293.860 275.568,294.400 274.845,294.400 274.595 C 294.400 274.344,294.860 273.707,295.423 273.178 C 295.986 272.649,296.988 271.082,297.650 269.695 C 298.312 268.308,299.202 266.956,299.627 266.690 C 300.052 266.425,300.400 265.891,300.400 265.504 C 300.400 265.117,300.580 264.800,300.800 264.800 C 301.020 264.800,301.200 264.440,301.200 264.000 C 301.200 263.560,301.380 263.200,301.600 263.200 C 301.820 263.200,302.000 262.840,302.000 262.400 C 302.000 261.960,302.180 261.600,302.400 261.600 C 302.620 261.600,302.800 261.240,302.800 260.800 C 302.800 260.360,302.980 260.000,303.200 260.000 C 303.420 260.000,303.600 259.640,303.600 259.200 C 303.600 258.760,303.780 258.400,304.000 258.400 C 304.220 258.400,304.400 257.860,304.400 257.200 C 304.400 256.540,304.580 256.000,304.800 256.000 C 305.020 256.000,305.200 255.640,305.200 255.200 C 305.200 254.760,305.380 254.400,305.600 254.400 C 305.820 254.400,306.000 254.040,306.000 253.600 C 306.000 253.160,306.180 252.800,306.400 252.800 C 306.620 252.800,306.800 252.260,306.800 251.600 C 306.800 250.940,306.980 250.400,307.200 250.400 C 307.420 250.400,307.600 249.860,307.600 249.200 C 307.600 248.540,307.780 248.000,308.000 248.000 C 308.220 248.000,308.400 247.460,308.400 246.800 C 308.400 246.140,308.580 245.600,308.800 245.600 C 309.020 245.600,309.200 245.060,309.200 244.400 C 309.200 243.740,309.380 243.200,309.600 243.200 C 309.820 243.200,310.000 242.300,310.000 241.200 C 310.000 240.100,310.180 239.200,310.400 239.200 C 310.620 239.200,310.800 238.480,310.800 237.600 C 310.800 236.720,310.980 236.000,311.200 236.000 C 311.420 236.000,311.600 235.280,311.600 234.400 C 311.600 233.520,311.780 232.800,312.000 232.800 C 312.229 232.800,312.400 231.600,312.400 230.000 C 312.400 228.400,312.571 227.200,312.800 227.200 C 313.037 227.200,313.200 225.733,313.200 223.600 C 313.200 221.467,313.363 220.000,313.600 220.000 C 313.856 220.000,314.000 216.533,314.000 210.400 C 314.000 204.267,313.856 200.800,313.600 200.800 C 313.360 200.800,313.200 199.200,313.200 196.800 C 313.200 194.400,313.040 192.800,312.800 192.800 C 312.567 192.800,312.400 191.467,312.400 189.600 C 312.400 187.733,312.233 186.400,312.000 186.400 C 311.780 186.400,311.600 185.500,311.600 184.400 C 311.600 183.300,311.420 182.400,311.200 182.400 C 310.980 182.400,310.800 181.680,310.800 180.800 C 310.800 179.920,310.620 179.200,310.400 179.200 C 310.180 179.200,310.000 178.300,310.000 177.200 C 310.000 176.100,309.820 175.200,309.600 175.200 C 309.380 175.200,309.200 174.480,309.200 173.600 C 309.200 172.720,309.020 172.000,308.800 172.000 C 308.580 172.000,308.400 171.640,308.400 171.200 C 308.400 170.760,308.220 170.400,308.000 170.400 C 307.780 170.400,307.600 169.860,307.600 169.200 C 307.600 168.540,307.420 168.000,307.200 168.000 C 306.980 168.000,306.800 167.460,306.800 166.800 C 306.800 166.140,306.620 165.600,306.400 165.600 C 306.180 165.600,306.000 165.240,306.000 164.800 C 306.000 164.360,305.820 164.000,305.600 164.000 C 305.380 164.000,305.200 163.460,305.200 162.800 C 305.200 162.140,305.020 161.600,304.800 161.600 C 304.580 161.600,304.400 161.240,304.400 160.800 C 304.400 160.360,304.220 160.000,304.000 160.000 C 303.780 160.000,303.600 159.640,303.600 159.200 C 303.600 158.760,303.420 158.400,303.200 158.400 C 302.980 158.400,302.800 158.040,302.800 157.600 C 302.800 157.160,302.620 156.800,302.400 156.800 C 302.180 156.800,302.000 156.440,302.000 156.000 C 302.000 155.560,301.820 155.200,301.600 155.200 C 301.380 155.200,301.200 154.840,301.200 154.400 C 301.200 153.960,301.020 153.600,300.800 153.600 C 300.580 153.600,300.400 153.259,300.400 152.843 C 300.400 152.426,300.130 151.982,299.800 151.855 C 299.470 151.729,299.200 151.377,299.200 151.075 C 299.200 150.772,298.840 150.198,298.400 149.800 C 297.960 149.402,297.600 148.862,297.600 148.600 C 297.600 148.338,297.240 147.798,296.800 147.400 C 296.360 147.002,296.000 146.462,296.000 146.200 C 296.000 145.938,295.640 145.398,295.200 145.000 C 294.760 144.602,294.400 144.068,294.400 143.813 C 294.400 143.558,293.860 142.832,293.200 142.200 C 292.540 141.568,292.000 140.853,292.000 140.613 C 292.000 140.372,290.920 139.106,289.600 137.800 C 288.280 136.494,287.200 135.233,287.200 134.999 C 287.200 134.463,283.115 130.400,282.577 130.400 C 282.358 130.400,280.928 129.140,279.400 127.600 C 277.872 126.060,276.425 124.800,276.186 124.800 C 275.946 124.800,275.232 124.260,274.600 123.600 C 273.968 122.940,273.242 122.400,272.987 122.400 C 272.732 122.400,272.198 122.040,271.800 121.600 C 271.402 121.160,270.865 120.800,270.608 120.800 C 270.350 120.800,269.713 120.346,269.192 119.791 C 268.671 119.237,267.244 118.306,266.022 117.723 C 264.800 117.140,263.497 116.406,263.126 116.093 C 262.241 115.344,252.363 110.400,251.753 110.400 C 251.494 110.400,250.255 109.860,249.000 109.200 C 247.745 108.540,246.388 108.000,245.983 108.000 C 245.578 108.000,245.136 107.820,245.000 107.600 C 244.864 107.380,244.324 107.200,243.800 107.200 C 243.276 107.200,242.736 107.020,242.600 106.800 C 242.464 106.580,241.924 106.400,241.400 106.400 C 240.876 106.400,240.336 106.220,240.200 106.000 C 240.064 105.780,239.524 105.600,239.000 105.600 C 238.476 105.600,237.936 105.420,237.800 105.200 C 237.664 104.980,237.124 104.800,236.600 104.800 C 236.076 104.800,235.536 104.620,235.400 104.400 C 235.264 104.180,234.364 104.000,233.400 104.000 C 232.436 104.000,231.536 103.820,231.400 103.600 C 231.264 103.380,230.544 103.200,229.800 103.200 C 229.056 103.200,228.336 103.020,228.200 102.800 C 228.064 102.580,227.344 102.400,226.600 102.400 C 225.856 102.400,225.136 102.220,225.000 102.000 C 224.864 101.780,223.964 101.600,223.000 101.600 C 222.036 101.600,221.136 101.420,221.000 101.200 C 220.864 100.980,219.784 100.800,218.600 100.800 C 217.416 100.800,216.336 100.620,216.200 100.400 C 216.064 100.180,215.009 100.000,213.856 100.000 C 212.703 100.000,211.589 99.832,211.380 99.627 C 211.009 99.263,209.130 99.106,197.918 98.497 C 194.431 98.308,192.255 98.018,191.938 97.700 C 191.182 96.941,108.102 96.996,107.100 97.757 M188.800 110.800 C 188.800 111.046,190.800 111.200,194.000 111.200 C 197.200 111.200,199.200 111.354,199.200 111.600 C 199.200 111.829,200.400 112.000,202.000 112.000 C 203.600 112.000,204.800 112.171,204.800 112.400 C 204.800 112.629,206.000 112.800,207.600 112.800 C 209.200 112.800,210.400 112.971,210.400 113.200 C 210.400 113.420,211.120 113.600,212.000 113.600 C 212.880 113.600,213.600 113.780,213.600 114.000 C 213.600 114.220,214.320 114.400,215.200 114.400 C 216.080 114.400,216.800 114.580,216.800 114.800 C 216.800 115.020,217.340 115.200,218.000 115.200 C 218.660 115.200,219.200 115.380,219.200 115.600 C 219.200 115.820,219.920 116.000,220.800 116.000 C 221.680 116.000,222.400 116.180,222.400 116.400 C 222.400 116.620,222.940 116.800,223.600 116.800 C 224.260 116.800,224.800 116.980,224.800 117.200 C 224.800 117.420,225.340 117.600,226.000 117.600 C 226.660 117.600,227.200 117.780,227.200 118.000 C 227.200 118.220,227.560 118.400,228.000 118.400 C 228.440 118.400,228.800 118.580,228.800 118.800 C 228.800 119.020,229.160 119.200,229.600 119.200 C 230.040 119.200,230.400 119.380,230.400 119.600 C 230.400 119.820,230.760 120.000,231.200 120.000 C 231.640 120.000,232.000 120.180,232.000 120.400 C 232.000 120.620,232.540 120.800,233.200 120.800 C 233.860 120.800,234.400 120.980,234.400 121.200 C 234.400 121.420,234.760 121.600,235.200 121.600 C 235.640 121.600,236.000 121.780,236.000 122.000 C 236.000 122.220,236.360 122.400,236.800 122.400 C 237.240 122.400,237.600 122.580,237.600 122.800 C 237.600 123.020,237.920 123.200,238.312 123.200 C 238.703 123.200,239.283 123.560,239.600 124.000 C 239.917 124.440,240.457 124.800,240.800 124.800 C 241.143 124.800,241.683 125.160,242.000 125.600 C 242.317 126.040,242.857 126.400,243.200 126.400 C 243.543 126.400,244.083 126.760,244.400 127.200 C 244.717 127.640,245.297 128.000,245.688 128.000 C 246.080 128.000,246.400 128.180,246.400 128.400 C 246.400 128.620,246.680 128.800,247.022 128.800 C 247.364 128.800,248.704 129.880,250.000 131.200 C 251.296 132.520,252.549 133.600,252.784 133.600 C 253.346 133.600,259.200 139.458,259.200 140.020 C 259.200 140.257,260.100 141.329,261.200 142.400 C 262.300 143.471,263.200 144.590,263.200 144.886 C 263.200 145.181,263.560 145.683,264.000 146.000 C 264.440 146.317,264.800 146.857,264.800 147.200 C 264.800 147.543,265.160 148.083,265.600 148.400 C 266.040 148.717,266.400 149.297,266.400 149.688 C 266.400 150.080,266.580 150.400,266.800 150.400 C 267.020 150.400,267.200 150.720,267.200 151.112 C 267.200 151.503,267.560 152.083,268.000 152.400 C 268.440 152.717,268.800 153.297,268.800 153.688 C 268.800 154.080,268.980 154.400,269.200 154.400 C 269.420 154.400,269.600 154.760,269.600 155.200 C 269.600 155.640,269.780 156.000,270.000 156.000 C 270.220 156.000,270.400 156.360,270.400 156.800 C 270.400 157.240,270.580 157.600,270.800 157.600 C 271.020 157.600,271.200 157.960,271.200 158.400 C 271.200 158.840,271.380 159.200,271.600 159.200 C 271.820 159.200,272.000 159.560,272.000 160.000 C 272.000 160.440,272.180 160.800,272.400 160.800 C 272.620 160.800,272.800 161.340,272.800 162.000 C 272.800 162.660,272.980 163.200,273.200 163.200 C 273.420 163.200,273.600 163.560,273.600 164.000 C 273.600 164.440,273.780 164.800,274.000 164.800 C 274.220 164.800,274.400 165.340,274.400 166.000 C 274.400 166.660,274.580 167.200,274.800 167.200 C 275.020 167.200,275.200 167.740,275.200 168.400 C 275.200 169.060,275.380 169.600,275.600 169.600 C 275.820 169.600,276.000 170.140,276.000 170.800 C 276.000 171.460,276.180 172.000,276.400 172.000 C 276.620 172.000,276.800 172.720,276.800 173.600 C 276.800 174.480,276.980 175.200,277.200 175.200 C 277.420 175.200,277.600 175.920,277.600 176.800 C 277.600 177.680,277.780 178.400,278.000 178.400 C 278.220 178.400,278.400 178.940,278.400 179.600 C 278.400 180.260,278.580 180.800,278.800 180.800 C 279.029 180.800,279.200 182.000,279.200 183.600 C 279.200 185.200,279.371 186.400,279.600 186.400 C 279.829 186.400,280.000 187.600,280.000 189.200 C 280.000 190.800,280.171 192.000,280.400 192.000 C 280.646 192.000,280.800 194.000,280.800 197.200 C 280.800 200.400,280.954 202.400,281.200 202.400 C 281.453 202.400,281.600 205.200,281.600 210.000 C 281.600 214.800,281.453 217.600,281.200 217.600 C 280.958 217.600,280.800 219.333,280.800 222.000 C 280.800 224.667,280.642 226.400,280.400 226.400 C 280.171 226.400,280.000 227.600,280.000 229.200 C 280.000 230.800,279.829 232.000,279.600 232.000 C 279.380 232.000,279.200 232.900,279.200 234.000 C 279.200 235.100,279.020 236.000,278.800 236.000 C 278.580 236.000,278.400 236.900,278.400 238.000 C 278.400 239.100,278.220 240.000,278.000 240.000 C 277.780 240.000,277.600 240.540,277.600 241.200 C 277.600 241.860,277.420 242.400,277.200 242.400 C 276.980 242.400,276.800 242.940,276.800 243.600 C 276.800 244.260,276.620 244.800,276.400 244.800 C 276.180 244.800,276.000 245.520,276.000 246.400 C 276.000 247.280,275.820 248.000,275.600 248.000 C 275.380 248.000,275.200 248.540,275.200 249.200 C 275.200 249.860,275.020 250.400,274.800 250.400 C 274.580 250.400,274.400 250.760,274.400 251.200 C 274.400 251.640,274.220 252.000,274.000 252.000 C 273.780 252.000,273.600 252.360,273.600 252.800 C 273.600 253.240,273.420 253.600,273.200 253.600 C 272.980 253.600,272.800 253.960,272.800 254.400 C 272.800 254.840,272.620 255.200,272.400 255.200 C 272.180 255.200,272.000 255.560,272.000 256.000 C 272.000 256.440,271.820 256.800,271.600 256.800 C 271.380 256.800,271.200 257.160,271.200 257.600 C 271.200 258.040,271.020 258.400,270.800 258.400 C 270.580 258.400,270.400 258.940,270.400 259.600 C 270.400 260.260,270.220 260.800,270.000 260.800 C 269.780 260.800,269.600 261.160,269.600 261.600 C 269.600 262.040,269.420 262.400,269.200 262.400 C 268.980 262.400,268.800 262.760,268.800 263.200 C 268.800 263.640,268.620 264.000,268.400 264.000 C 268.180 264.000,268.000 264.360,268.000 264.800 C 268.000 265.240,267.820 265.600,267.600 265.600 C 267.380 265.600,267.200 265.960,267.200 266.400 C 267.200 266.840,267.020 267.200,266.800 267.200 C 266.580 267.200,266.400 267.488,266.400 267.840 C 266.400 268.191,265.860 268.983,265.200 269.600 C 264.540 270.217,264.000 270.937,264.000 271.200 C 264.000 271.463,263.460 272.183,262.800 272.800 C 262.140 273.417,261.600 274.169,261.600 274.472 C 261.600 274.775,261.240 275.283,260.800 275.600 C 260.360 275.917,260.000 276.425,260.000 276.728 C 260.000 277.031,259.460 277.783,258.800 278.400 C 258.140 279.017,257.600 279.721,257.600 279.966 C 257.600 280.533,250.954 287.200,250.389 287.200 C 250.156 287.200,248.578 288.600,246.883 290.310 C 245.187 292.021,243.133 293.736,242.319 294.120 C 241.504 294.505,240.604 295.041,240.319 295.312 C 240.033 295.583,238.900 296.244,237.800 296.780 C 236.700 297.317,235.440 298.055,235.000 298.420 C 234.560 298.786,233.570 299.424,232.800 299.838 C 232.030 300.252,231.094 300.838,230.719 301.140 C 229.744 301.926,226.359 303.600,225.744 303.600 C 225.458 303.600,224.583 303.960,223.800 304.400 C 223.017 304.840,222.032 305.200,221.611 305.200 C 221.191 305.200,220.736 305.380,220.600 305.600 C 220.464 305.820,219.924 306.000,219.400 306.000 C 218.876 306.000,218.336 306.180,218.200 306.400 C 218.064 306.620,217.344 306.800,216.600 306.800 C 215.856 306.800,215.136 306.980,215.000 307.200 C 214.864 307.420,214.144 307.600,213.400 307.600 C 212.656 307.600,211.936 307.780,211.800 308.000 C 211.664 308.220,210.764 308.400,209.800 308.400 C 208.836 308.400,207.936 308.580,207.800 308.800 C 207.664 309.020,206.404 309.200,205.000 309.200 C 203.596 309.200,202.336 309.380,202.200 309.600 C 202.040 309.859,193.996 310.000,179.376 310.000 L 156.800 310.000 156.800 306.400 C 156.800 304.267,156.963 302.800,157.200 302.800 C 157.465 302.800,157.600 273.400,157.600 215.400 C 157.600 157.400,157.735 128.000,158.000 128.000 C 158.220 128.000,158.400 127.100,158.400 126.000 C 158.400 124.900,158.580 124.000,158.800 124.000 C 159.020 124.000,159.200 123.100,159.200 122.000 C 159.200 120.900,159.380 120.000,159.600 120.000 C 159.820 120.000,160.000 119.680,160.000 119.288 C 160.000 118.897,160.360 118.317,160.800 118.000 C 161.240 117.683,161.600 117.188,161.600 116.901 C 161.600 115.938,165.112 112.800,166.189 112.800 C 166.745 112.800,167.200 112.620,167.200 112.400 C 167.200 112.180,167.560 112.000,168.000 112.000 C 168.440 112.000,168.800 111.820,168.800 111.600 C 168.800 111.380,169.700 111.200,170.800 111.200 C 171.900 111.200,172.800 111.020,172.800 110.800 C 172.800 110.547,175.733 110.400,180.800 110.400 C 185.867 110.400,188.800 110.547,188.800 110.800 " stroke="none" fill="#040404" fill-rule="evenodd"></path><path id="path1" d="" stroke="none" fill="#080404" fill-rule="evenodd"></path><path id="path2" d="" stroke="none" fill="#080404" fill-rule="evenodd"></path><path id="path3" d="" stroke="none" fill="#080404" fill-rule="evenodd"></path><path id="path4" d="" stroke="none" fill="#080404" fill-rule="evenodd"></path></g></svg>